<svg xmlns="http://www.w3.org/2000/svg" viewBox="0 0 57.56 58.37"><defs><style>.cls-1{fill:#fff;}</style></defs><title>wp-mobili</title><g id="Layer_2" data-name="Layer 2"><g id="Layer_1-2" data-name="Layer 1"><path class="cls-1" d="M15.51,18.69C9.4,23.42,9,24.4,11.75,27.7c4.15,4.95,3.92,5.53-1.17,9.69A61.93,61.93,0,0,0,.72,47.08C-.46,48.62.21,51.59,0,53.9c2.46,0,5.67.88,7.23-.33a66.73,66.73,0,0,0,9.92-10.36c3.71-4.5,4.87-4.86,9.13-.92,2.34,2.16,4.24,2.31,6.35-.07,1.07-1.21,2.22-2.35,3.14-3.32C29,32.08,22.37,25.52,15.51,18.69ZM39,34.55c4.3-4,8.86-8.24,12.45-11.58-5.59-3.22-11.49-6.24-17-9.85-6.86-4.5-11-4.08-15,1.91Z"/><path d="M15.51,18.69C22.37,25.52,29,32.08,35.81,38.9c-.92,1-2.07,2.11-3.14,3.32-2.11,2.38-4,2.23-6.35.07-4.26-3.94-5.42-3.58-9.13.92A66.73,66.73,0,0,1,7.27,53.57c-1.56,1.21-4.77.29-7.23.33.17-2.31-.5-5.28.68-6.82a61.93,61.93,0,0,1,9.86-9.69c5.09-4.16,5.32-4.74,1.17-9.69C9,24.4,9.4,23.42,15.51,18.69Z"/><path d="M39,34.55,19.34,15c4-6,8.19-6.41,15.05-1.91,5.52,3.61,11.42,6.63,17,9.85C47.81,26.31,43.25,30.54,39,34.55Z"/><path d="M51.19,0H28.38A6.37,6.37,0,0,0,22,6.37v3.89A7.3,7.3,0,0,1,25.5,8.81,6.36,6.36,0,0,1,31.79,3.4h16a6.38,6.38,0,0,1,6.37,6.38V48.6A6.38,6.38,0,0,1,47.79,55h-16a6.38,6.38,0,0,1-6.38-6.37V42.83A9.57,9.57,0,0,0,22,40.6V52a6.37,6.37,0,0,0,6.37,6.37H51.19A6.37,6.37,0,0,0,57.56,52V6.37A6.37,6.37,0,0,0,51.19,0Z"/><circle cx="39.79" cy="48.49" r="3.7"/></g></g></svg>